<?xml version="1.0" standalone="no"?>
<svg xmlns="http://www.w3.org/2000/svg" xmlns:xlink="http://www.w3.org/1999/xlink" width="551pt" height="454pt" viewBox="0.00 0.00 551.44 454.00">
<g id="graph0" class="graph" transform="translate(4,450) scale(1)" data-name="G">

<polygon fill="#2e3e56" stroke="none" points="-4,4 -4,-450 547.44,-450 547.44,4 -4,4" style=""/>
<g id="clust1" class="cluster" data-name="clusterPBTLPStaking">

<path fill="#445773" stroke="#445773" d="M20,-8C20,-8 386.01,-8 386.01,-8 392.01,-8 398.01,-14 398.01,-20 398.01,-20 398.01,-289 398.01,-289 398.01,-295 392.01,-301 386.01,-301 386.01,-301 20,-301 20,-301 14,-301 8,-295 8,-289 8,-289 8,-20 8,-20 8,-14 14,-8 20,-8" style=""/>
<text text-anchor="middle" x="203.01" y="-284.4" font-family="Times,serif" font-size="14.00" fill="#f0f0f0" style="">PBTLPStaking</text>
</g>
<g id="clust2" class="cluster" data-name="clusterIERC20">

<path fill="#3b4b63" stroke="#e8726d" stroke-dasharray="5,2" d="M430.01,-62C430.01,-62 523.44,-62 523.44,-62 529.44,-62 535.44,-68 535.44,-74 535.44,-74 535.44,-181 535.44,-181 535.44,-187 529.44,-193 523.44,-193 523.44,-193 430.01,-193 430.01,-193 424.01,-193 418.01,-187 418.01,-181 418.01,-181 418.01,-74 418.01,-74 418.01,-68 424.01,-62 430.01,-62" style=""/>
<text text-anchor="middle" x="476.72" y="-176.4" font-family="Times,serif" font-size="14.00" fill="#f0f0f0" style="">IERC20</text>
</g>
<g id="clust3" class="cluster" data-name="cluster_01">

<polygon fill="#2e3e56" stroke="black" points="35.01,-309 35.01,-438 348.01,-438 348.01,-309 35.01,-309" style=""/>
<text text-anchor="middle" x="191.51" y="-421.4" font-family="Times,serif" font-size="14.00" style="">Legend</text>
</g>
<!-- PBTLPStaking.&lt;Constructor&gt; -->
<g id="node1" class="node" pointer-events="visible" data-name="PBTLPStaking.&lt;Constructor&gt;">

<ellipse fill="#ff9797" stroke="#ff9797" stroke-width="3" cx="108.01" cy="-250" rx="67.55" ry="18" style=""/>
<text text-anchor="middle" x="108.01" y="-245.8" font-family="Times,serif" font-size="14.00" style="">&lt;Constructor&gt;</text>
</g>
<!-- PBTLPStaking.pendingPbt -->
<g id="node2" class="node" pointer-events="visible" data-name="PBTLPStaking.pendingPbt">

<ellipse fill="#ffbdb9" stroke="#ffbdb9" stroke-width="3" cx="108.01" cy="-196" rx="55.06" ry="18" style=""/>
<text text-anchor="middle" x="108.01" y="-191.8" font-family="Times,serif" font-size="14.00" style="">pendingPbt</text>
</g>
<!-- PBTLPStaking.deposit -->
<g id="node3" class="node" pointer-events="visible" data-name="PBTLPStaking.deposit">

<ellipse fill="#ffbdb9" stroke="#ffbdb9" stroke-width="3" cx="108.01" cy="-142" rx="38.86" ry="18" style=""/>
<text text-anchor="middle" x="108.01" y="-137.8" font-family="Times,serif" font-size="14.00" style="">deposit</text>
</g>
<!-- PBTLPStaking._updatePool -->
<g id="node6" class="node" pointer-events="visible" data-name="PBTLPStaking._updatePool">

<ellipse fill="#edad56" stroke="#edad56" stroke-width="3" cx="313.01" cy="-88" rx="59.13" ry="18" style=""/>
<text text-anchor="middle" x="313.01" y="-83.8" font-family="Times,serif" font-size="14.00" style="">_updatePool</text>
</g>
<!-- PBTLPStaking.deposit&#45;&gt;PBTLPStaking._updatePool -->
<g id="edge1" class="edge" data-name="PBTLPStaking.deposit-&gt;PBTLPStaking._updatePool">

<path fill="none" stroke="#1bc6a6" stroke-width="2" d="M143.45,-132.84C173.6,-124.82 218.05,-112.99 253.73,-103.5" style=""/>
<polygon fill="#1bc6a6" stroke="#1bc6a6" stroke-width="2" points="254.26,-106.98 263.03,-101.03 252.46,-100.22 254.26,-106.98" style=""/>
</g>
<!-- PBTLPStaking._safePbtTransfer -->
<g id="node7" class="node" pointer-events="visible" data-name="PBTLPStaking._safePbtTransfer">

<ellipse fill="#edad56" stroke="#edad56" stroke-width="3" cx="313.01" cy="-142" rx="77" ry="18" style=""/>
<text text-anchor="middle" x="313.01" y="-137.8" font-family="Times,serif" font-size="14.00" style="">_safePbtTransfer</text>
</g>
<!-- PBTLPStaking.deposit&#45;&gt;PBTLPStaking._safePbtTransfer -->
<g id="edge2" class="edge" data-name="PBTLPStaking.deposit-&gt;PBTLPStaking._safePbtTransfer">

<path fill="none" stroke="#1bc6a6" stroke-width="2" d="M148.15,-142C169.14,-142 195.95,-142 221.77,-142" style=""/>
<polygon fill="#1bc6a6" stroke="#1bc6a6" stroke-width="2" points="221.71,-145.5 231.71,-142 221.71,-138.5 221.71,-145.5" style=""/>
</g>
<!-- PBTLPStaking.withdraw -->
<g id="node4" class="node" pointer-events="visible" data-name="PBTLPStaking.withdraw">

<ellipse fill="#ffbdb9" stroke="#ffbdb9" stroke-width="3" cx="108.01" cy="-88" rx="47.52" ry="18" style=""/>
<text text-anchor="middle" x="108.01" y="-83.8" font-family="Times,serif" font-size="14.00" style="">withdraw</text>
</g>
<!-- PBTLPStaking.withdraw&#45;&gt;PBTLPStaking._updatePool -->
<g id="edge3" class="edge" data-name="PBTLPStaking.withdraw-&gt;PBTLPStaking._updatePool">

<path fill="none" stroke="#1bc6a6" stroke-width="2" d="M156.86,-88C181.55,-88 212.19,-88 239.7,-88" style=""/>
<polygon fill="#1bc6a6" stroke="#1bc6a6" stroke-width="2" points="239.47,-91.5 249.47,-88 239.47,-84.5 239.47,-91.5" style=""/>
</g>
<!-- PBTLPStaking.withdraw&#45;&gt;PBTLPStaking._safePbtTransfer -->
<g id="edge4" class="edge" data-name="PBTLPStaking.withdraw-&gt;PBTLPStaking._safePbtTransfer">

<path fill="none" stroke="#1bc6a6" stroke-width="2" d="M148.63,-98.54C176.44,-105.94 214.27,-116 246.53,-124.58" style=""/>
<polygon fill="#1bc6a6" stroke="#1bc6a6" stroke-width="2" points="245.55,-127.94 256.11,-127.13 247.35,-121.18 245.55,-127.94" style=""/>
</g>
<!-- PBTLPStaking.emergencyWithdraw -->
<g id="node5" class="node" pointer-events="visible" data-name="PBTLPStaking.emergencyWithdraw">

<ellipse fill="#ffbdb9" stroke="#ffbdb9" stroke-width="3" cx="108.01" cy="-34" rx="92.02" ry="18" style=""/>
<text text-anchor="middle" x="108.01" y="-29.8" font-family="Times,serif" font-size="14.00" style="">emergencyWithdraw</text>
</g>
<!-- IERC20.balanceOf -->
<g id="node8" class="node" pointer-events="visible" data-name="IERC20.balanceOf">

<ellipse fill="#edad56" stroke="#edad56" stroke-width="3" cx="476.72" cy="-88" rx="50.92" ry="18" style=""/>
<text text-anchor="middle" x="476.72" y="-83.8" font-family="Times,serif" font-size="14.00" style="">balanceOf</text>
</g>
<!-- PBTLPStaking._updatePool&#45;&gt;IERC20.balanceOf -->
<g id="edge5" class="edge" data-name="PBTLPStaking._updatePool-&gt;IERC20.balanceOf">

<path fill="none" stroke="white" stroke-width="2" d="M373.31,-88C385.75,-88 398.93,-88 411.55,-88" style=""/>
<polygon fill="white" stroke="white" stroke-width="2" points="411.4,-91.5 421.4,-88 411.4,-84.5 411.4,-91.5" style=""/>
</g>
<!-- PBTLPStaking._safePbtTransfer&#45;&gt;IERC20.balanceOf -->
<g id="edge6" class="edge" data-name="PBTLPStaking._safePbtTransfer-&gt;IERC20.balanceOf">

<path fill="none" stroke="white" stroke-width="2" d="M361.61,-126.91C373.52,-123.08 386.25,-118.93 398.01,-115 407.15,-111.95 416.86,-108.63 426.22,-105.39" style=""/>
<polygon fill="white" stroke="white" stroke-width="2" points="427.08,-108.8 435.38,-102.22 424.78,-102.19 427.08,-108.8" style=""/>
</g>
<!-- IERC20.transfer -->
<g id="node9" class="node" pointer-events="visible" data-name="IERC20.transfer">

<ellipse fill="#edad56" stroke="#edad56" stroke-width="3" cx="476.72" cy="-142" rx="40.55" ry="18" style=""/>
<text text-anchor="middle" x="476.72" y="-137.8" font-family="Times,serif" font-size="14.00" style="">transfer</text>
</g>
<!-- PBTLPStaking._safePbtTransfer&#45;&gt;IERC20.transfer -->
<g id="edge7" class="edge" data-name="PBTLPStaking._safePbtTransfer-&gt;IERC20.transfer">

<path fill="none" stroke="white" stroke-width="2" d="M386.36,-135.28C398.94,-135.18 411.81,-135.31 423.71,-135.65" style=""/>
<polygon fill="white" stroke="white" stroke-width="2" points="423.53,-139.14 433.65,-136.01 423.79,-132.15 423.53,-139.14" style=""/>
</g>
<!-- PBTLPStaking._safePbtTransfer&#45;&gt;IERC20.transfer -->
<g id="edge8" class="edge" data-name="PBTLPStaking._safePbtTransfer-&gt;IERC20.transfer">

<path fill="none" stroke="white" stroke-width="2" d="M386.36,-148.72C398.94,-148.82 411.81,-148.69 423.71,-148.35" style=""/>
<polygon fill="white" stroke="white" stroke-width="2" points="423.79,-151.85 433.65,-147.99 423.53,-144.86 423.79,-151.85" style=""/>
</g>
<!-- key -->
<g id="node10" class="node" pointer-events="visible" data-name="key">

<polygon fill="#edad56" stroke="none" stroke-width="3" points="173.01,-405 43.01,-405 43.01,-317 173.01,-317 173.01,-405" style=""/>
<text text-anchor="start" x="92.65" y="-386.4" font-family="Times,serif" font-size="14.00" style="">Internal Call</text>
<text text-anchor="start" x="88.76" y="-366.4" font-family="Times,serif" font-size="14.00" style="">External Call</text>
<text text-anchor="start" x="66.21" y="-346.4" font-family="Times,serif" font-size="14.00" style="">Defined Contract</text>
<text text-anchor="start" x="52.61" y="-326.4" font-family="Times,serif" font-size="14.00" style="">Undefined Contract</text>
</g>
<!-- key2 -->
<g id="node11" class="node" pointer-events="visible" data-name="key2">

<polygon fill="#edad56" stroke="none" stroke-width="3" points="340.01,-405 286.01,-405 286.01,-317 340.01,-317 340.01,-405" style=""/>
<text text-anchor="start" x="303.01" y="-386.4" font-family="Times,serif" font-size="14.00" style="">   </text>
<text text-anchor="start" x="303.01" y="-366.4" font-family="Times,serif" font-size="14.00" style="">   </text>
<polygon fill="#445773" stroke="none" points="301.01,-341 301.01,-361 326.01,-361 326.01,-341 301.01,-341" style=""/>
<text text-anchor="start" x="303.01" y="-346.4" font-family="Times,serif" font-size="14.00" style="">   </text>
<polygon fill="none" stroke="#e8726d" points="303.01,-323 303.01,-339 324.01,-339 324.01,-323 303.01,-323" style=""/>
</g>
<!-- key&#45;&gt;key2 -->
<g id="edge9" class="edge" data-name="key-&gt;key2">

<path fill="none" stroke="#1bc6a6" stroke-width="2" d="M166.01,-391C221.03,-391 237.93,-391 287.14,-391" style=""/>
<polygon fill="#1bc6a6" stroke="#1bc6a6" stroke-width="2" points="286.99,-394.5 296.99,-391 286.99,-387.5 286.99,-394.5" style=""/>
</g>
<!-- key&#45;&gt;key2 -->
<g id="edge10" class="edge" data-name="key-&gt;key2">

<path fill="none" stroke="white" stroke-width="2" d="M166.01,-371C221.03,-371 237.93,-371 287.14,-371" style=""/>
<polygon fill="white" stroke="white" stroke-width="2" points="286.99,-374.5 296.99,-371 286.99,-367.5 286.99,-374.5" style=""/>
</g>
</g>
</svg>