<?xml version="1.0" standalone="no"?>
<svg xmlns="http://www.w3.org/2000/svg" xmlns:xlink="http://www.w3.org/1999/xlink" width="361pt" height="516pt" viewBox="0.00 0.00 360.77 516.00">
<g id="graph0" class="graph" transform="translate(4,512) scale(1)" data-name="G">

<polygon fill="#2e3e56" stroke="none" points="-4,4 -4,-512 356.77,-512 356.77,4 -4,4" style=""/>
<g id="clust1" class="cluster" data-name="clusterPBTDistributor">

<path fill="#445773" stroke="#445773" d="M20,-178C20,-178 332.77,-178 332.77,-178 338.77,-178 344.77,-184 344.77,-190 344.77,-190 344.77,-351 344.77,-351 344.77,-357 338.77,-363 332.77,-363 332.77,-363 20,-363 20,-363 14,-363 8,-357 8,-351 8,-351 8,-190 8,-190 8,-184 14,-178 20,-178" style=""/>
<text text-anchor="middle" x="176.38" y="-346.4" font-family="Times,serif" font-size="14.00" fill="#f0f0f0" style="">PBTDistributor</text>
</g>
<g id="clust2" class="cluster" data-name="clusterMerkleProof">

<path fill="#3b4b63" stroke="#e8726d" stroke-dasharray="5,2" d="M230.82,-93C230.82,-93 294,-93 294,-93 300,-93 306,-99 306,-105 306,-105 306,-158 306,-158 306,-164 300,-170 294,-170 294,-170 230.82,-170 230.82,-170 224.82,-170 218.82,-164 218.82,-158 218.82,-158 218.82,-105 218.82,-105 218.82,-99 224.82,-93 230.82,-93" style=""/>
<text text-anchor="middle" x="262.41" y="-153.4" font-family="Times,serif" font-size="14.00" fill="#f0f0f0" style="">MerkleProof</text>
</g>
<g id="clust3" class="cluster" data-name="clusterIERC20">

<path fill="#3b4b63" stroke="#e8726d" stroke-dasharray="5,2" d="M225.38,-8C225.38,-8 298.44,-8 298.44,-8 304.44,-8 310.44,-14 310.44,-20 310.44,-20 310.44,-73 310.44,-73 310.44,-79 304.44,-85 298.44,-85 298.44,-85 225.38,-85 225.38,-85 219.38,-85 213.38,-79 213.38,-73 213.38,-73 213.38,-20 213.38,-20 213.38,-14 219.38,-8 225.38,-8" style=""/>
<text text-anchor="middle" x="261.91" y="-68.4" font-family="Times,serif" font-size="14.00" fill="#f0f0f0" style="">IERC20</text>
</g>
<g id="clust4" class="cluster" data-name="cluster_01">

<polygon fill="#2e3e56" stroke="black" points="10.53,-371 10.53,-500 296.91,-500 296.91,-371 10.53,-371" style=""/>
<text text-anchor="middle" x="153.72" y="-483.4" font-family="Times,serif" font-size="14.00" style="">Legend</text>
</g>
<!-- PBTDistributor.&lt;Constructor&gt; -->
<g id="node1" class="node" pointer-events="visible" data-name="PBTDistributor.&lt;Constructor&gt;">

<ellipse fill="#ff9797" stroke="#ff9797" stroke-width="3" cx="83.53" cy="-312" rx="67.55" ry="18" style=""/>
<text text-anchor="middle" x="83.53" y="-307.8" font-family="Times,serif" font-size="14.00" style="">&lt;Constructor&gt;</text>
</g>
<!-- PBTDistributor.IERC20 -->
<g id="node3" class="node" pointer-events="visible" data-name="PBTDistributor.IERC20">

<ellipse fill="#edad56" stroke="#edad56" stroke-width="3" cx="261.91" cy="-312" rx="42.88" ry="18" style=""/>
<text text-anchor="middle" x="261.91" y="-307.8" font-family="Times,serif" font-size="14.00" style="">IERC20</text>
</g>
<!-- PBTDistributor.&lt;Constructor&gt;&#45;&gt;PBTDistributor.IERC20 -->
<g id="edge1" class="edge" data-name="PBTDistributor.&lt;Constructor&gt;-&gt;PBTDistributor.IERC20">

<path fill="none" stroke="#1bc6a6" stroke-width="2" d="M152.47,-312C169.77,-312 188.18,-312 204.82,-312" style=""/>
<polygon fill="#1bc6a6" stroke="#1bc6a6" stroke-width="2" points="204.71,-315.5 214.71,-312 204.71,-308.5 204.71,-315.5" style=""/>
</g>
<!-- PBTDistributor.claim -->
<g id="node2" class="node" pointer-events="visible" data-name="PBTDistributor.claim">

<ellipse fill="#ffbdb9" stroke="#ffbdb9" stroke-width="3" cx="83.53" cy="-204" rx="32.47" ry="18" style=""/>
<text text-anchor="middle" x="83.53" y="-199.8" font-family="Times,serif" font-size="14.00" style="">claim</text>
</g>
<!-- PBTDistributor.AlreadyClaimed -->
<g id="node4" class="node" pointer-events="visible" data-name="PBTDistributor.AlreadyClaimed">

<ellipse fill="#edad56" stroke="#edad56" stroke-width="3" cx="261.91" cy="-204" rx="74.72" ry="18" style=""/>
<text text-anchor="middle" x="261.91" y="-199.8" font-family="Times,serif" font-size="14.00" style="">AlreadyClaimed</text>
</g>
<!-- PBTDistributor.claim&#45;&gt;PBTDistributor.AlreadyClaimed -->
<g id="edge2" class="edge" data-name="PBTDistributor.claim-&gt;PBTDistributor.AlreadyClaimed">

<path fill="none" stroke="#1bc6a6" stroke-width="2" d="M117.29,-204C133.14,-204 153.02,-204 172.88,-204" style=""/>
<polygon fill="#1bc6a6" stroke="#1bc6a6" stroke-width="2" points="172.86,-207.5 182.86,-204 172.86,-200.5 172.86,-207.5" style=""/>
</g>
<!-- PBTDistributor.NotInMerkle -->
<g id="node5" class="node" pointer-events="visible" data-name="PBTDistributor.NotInMerkle">

<ellipse fill="#edad56" stroke="#edad56" stroke-width="3" cx="261.91" cy="-258" rx="61.41" ry="18" style=""/>
<text text-anchor="middle" x="261.91" y="-253.8" font-family="Times,serif" font-size="14.00" style="">NotInMerkle</text>
</g>
<!-- PBTDistributor.claim&#45;&gt;PBTDistributor.NotInMerkle -->
<g id="edge4" class="edge" data-name="PBTDistributor.claim-&gt;PBTDistributor.NotInMerkle">

<path fill="none" stroke="#1bc6a6" stroke-width="2" d="M113.65,-212.92C138.33,-220.47 174.44,-231.53 204.72,-240.8" style=""/>
<polygon fill="#1bc6a6" stroke="#1bc6a6" stroke-width="2" points="203.38,-244.05 213.96,-243.63 205.43,-237.35 203.38,-244.05" style=""/>
</g>
<!-- MerkleProof.verify -->
<g id="node6" class="node" pointer-events="visible" data-name="MerkleProof.verify">

<ellipse fill="#edad56" stroke="#edad56" stroke-width="3" cx="261.91" cy="-119" rx="34.19" ry="18" style=""/>
<text text-anchor="middle" x="261.91" y="-114.8" font-family="Times,serif" font-size="14.00" style="">verify</text>
</g>
<!-- PBTDistributor.claim&#45;&gt;MerkleProof.verify -->
<g id="edge3" class="edge" data-name="PBTDistributor.claim-&gt;MerkleProof.verify">

<path fill="none" stroke="white" stroke-width="2" d="M109.8,-191.82C139.54,-177.49 189.19,-153.56 223.42,-137.07" style=""/>
<polygon fill="white" stroke="white" stroke-width="2" points="224.61,-140.38 232.1,-132.89 221.57,-134.07 224.61,-140.38" style=""/>
</g>
<!-- IERC20.transfer -->
<g id="node7" class="node" pointer-events="visible" data-name="IERC20.transfer">

<ellipse fill="#edad56" stroke="#edad56" stroke-width="3" cx="261.91" cy="-34" rx="40.55" ry="18" style=""/>
<text text-anchor="middle" x="261.91" y="-29.8" font-family="Times,serif" font-size="14.00" style="">transfer</text>
</g>
<!-- PBTDistributor.claim&#45;&gt;IERC20.transfer -->
<g id="edge5" class="edge" data-name="PBTDistributor.claim-&gt;IERC20.transfer">

<path fill="none" stroke="white" stroke-width="2" d="M98.13,-186.64C116.89,-163.22 152.33,-120.79 187.05,-89 199.4,-77.7 214,-66.44 226.94,-57.08" style=""/>
<polygon fill="white" stroke="white" stroke-width="2" points="228.74,-60.1 234.87,-51.46 224.69,-54.39 228.74,-60.1" style=""/>
</g>
<!-- key -->
<g id="node8" class="node" pointer-events="visible" data-name="key">

<polygon fill="#edad56" stroke="none" stroke-width="3" points="148.53,-467 18.53,-467 18.53,-379 148.53,-379 148.53,-467" style=""/>
<text text-anchor="start" x="68.16" y="-448.4" font-family="Times,serif" font-size="14.00" style="">Internal Call</text>
<text text-anchor="start" x="64.27" y="-428.4" font-family="Times,serif" font-size="14.00" style="">External Call</text>
<text text-anchor="start" x="41.73" y="-408.4" font-family="Times,serif" font-size="14.00" style="">Defined Contract</text>
<text text-anchor="start" x="28.13" y="-388.4" font-family="Times,serif" font-size="14.00" style="">Undefined Contract</text>
</g>
<!-- key2 -->
<g id="node9" class="node" pointer-events="visible" data-name="key2">

<polygon fill="#edad56" stroke="none" stroke-width="3" points="288.91,-467 234.91,-467 234.91,-379 288.91,-379 288.91,-467" style=""/>
<text text-anchor="start" x="251.91" y="-448.4" font-family="Times,serif" font-size="14.00" style="">   </text>
<text text-anchor="start" x="251.91" y="-428.4" font-family="Times,serif" font-size="14.00" style="">   </text>
<polygon fill="#445773" stroke="none" points="249.91,-403 249.91,-423 274.91,-423 274.91,-403 249.91,-403" style=""/>
<text text-anchor="start" x="251.91" y="-408.4" font-family="Times,serif" font-size="14.00" style="">   </text>
<polygon fill="none" stroke="#e8726d" points="251.91,-385 251.91,-401 272.91,-401 272.91,-385 251.91,-385" style=""/>
</g>
<!-- key&#45;&gt;key2 -->
<g id="edge6" class="edge" data-name="key-&gt;key2">

<path fill="none" stroke="#1bc6a6" stroke-width="2" d="M141.53,-453C184.59,-453 198.51,-453 235.89,-453" style=""/>
<polygon fill="#1bc6a6" stroke="#1bc6a6" stroke-width="2" points="235.88,-456.5 245.88,-453 235.88,-449.5 235.88,-456.5" style=""/>
</g>
<!-- key&#45;&gt;key2 -->
<g id="edge7" class="edge" data-name="key-&gt;key2">

<path fill="none" stroke="white" stroke-width="2" d="M141.53,-433C184.59,-433 198.51,-433 235.89,-433" style=""/>
<polygon fill="white" stroke="white" stroke-width="2" points="235.88,-436.5 245.88,-433 235.88,-429.5 235.88,-436.5" style=""/>
</g>
</g>
</svg>