<?xml version="1.0" standalone="no"?>
<svg xmlns="http://www.w3.org/2000/svg" xmlns:xlink="http://www.w3.org/1999/xlink" width="551pt" height="701pt" viewBox="0.00 0.00 551.48 701.00">
<g id="graph0" class="graph" transform="translate(7.651859445123222,686.2359804815098) scale(0.9632618940201486)" data-name="G">

<polygon fill="#2e3e56" stroke="none" points="-4,4 -4,-697 547.48,-697 547.48,4 -4,4" style=""/>
<g id="clust1" class="cluster" data-name="clusterPBTStaking">

<path fill="#445773" stroke="#445773" d="M20,-147C20,-147 523.48,-147 523.48,-147 529.48,-147 535.48,-153 535.48,-159 535.48,-159 535.48,-536 535.48,-536 535.48,-542 529.48,-548 523.48,-548 523.48,-548 20,-548 20,-548 14,-548 8,-542 8,-536 8,-536 8,-159 8,-159 8,-153 14,-147 20,-147" style=""/>
<text text-anchor="middle" x="271.74" y="-531.4" font-family="Times,serif" font-size="14.00" fill="#f0f0f0" style="">PBTStaking</text>
</g>
<g id="clust2" class="cluster" data-name="clusterIERC20">

<path fill="#3b4b63" stroke="#e8726d" stroke-dasharray="5,2" d="M394.63,-8C394.63,-8 509.54,-8 509.54,-8 515.54,-8 521.54,-14 521.54,-20 521.54,-20 521.54,-127 521.54,-127 521.54,-133 515.54,-139 509.54,-139 509.54,-139 394.63,-139 394.63,-139 388.63,-139 382.63,-133 382.63,-127 382.63,-127 382.63,-20 382.63,-20 382.63,-14 388.63,-8 394.63,-8" style=""/>
<text text-anchor="middle" x="452.09" y="-122.4" font-family="Times,serif" font-size="14.00" fill="#f0f0f0" style="">IERC20</text>
</g>
<g id="clust3" class="cluster" data-name="cluster_01">

<polygon fill="#2e3e56" stroke="black" points="35.01,-556 35.01,-685 323.35,-685 323.35,-556 35.01,-556" style=""/>
<text text-anchor="middle" x="179.18" y="-668.4" font-family="Times,serif" font-size="14.00" style="">Legend</text>
</g>
<!-- PBTStaking.&lt;Constructor&gt; -->
<g id="node1" class="node" pointer-events="visible" data-name="PBTStaking.&lt;Constructor&gt;">

<ellipse fill="#ff9797" stroke="#ff9797" stroke-width="3" cx="108.01" cy="-497" rx="67.55" ry="18" style=""/>
<text text-anchor="middle" x="108.01" y="-492.8" font-family="Times,serif" font-size="14.00" style="">&lt;Constructor&gt;</text>
</g>
<!-- PBTStaking.pendingPbt -->
<g id="node2" class="node" pointer-events="visible" data-name="PBTStaking.pendingPbt">

<ellipse fill="#ffbdb9" stroke="#ffbdb9" stroke-width="3" cx="108.01" cy="-443" rx="55.06" ry="18" style=""/>
<text text-anchor="middle" x="108.01" y="-438.8" font-family="Times,serif" font-size="14.00" style="">pendingPbt</text>
</g>
<!-- PBTStaking.deposit -->
<g id="node3" class="node" pointer-events="visible" data-name="PBTStaking.deposit">

<ellipse fill="#ffbdb9" stroke="#ffbdb9" stroke-width="3" cx="108.01" cy="-389" rx="38.86" ry="18" style=""/>
<text text-anchor="middle" x="108.01" y="-384.8" font-family="Times,serif" font-size="14.00" style="">deposit</text>
</g>
<!-- PBTStaking._deposit -->
<g id="node8" class="node" pointer-events="visible" data-name="PBTStaking._deposit">

<ellipse fill="#edad56" stroke="#edad56" stroke-width="3" cx="288.35" cy="-321" rx="43.52" ry="18" style=""/>
<text text-anchor="middle" x="288.35" y="-316.8" font-family="Times,serif" font-size="14.00" style="">_deposit</text>
</g>
<!-- PBTStaking.deposit&#45;&gt;PBTStaking._deposit -->
<g id="edge1" class="edge" data-name="PBTStaking.deposit-&gt;PBTStaking._deposit">

<path fill="none" stroke="#1bc6a6" stroke-width="2" d="M143.55,-380.07C160.73,-375.3 181.69,-368.98 200.02,-362 215.95,-355.94 233.02,-348.21 247.81,-341.11" style=""/>
<polygon fill="#1bc6a6" stroke="#1bc6a6" stroke-width="2" points="248.94,-344.45 256.39,-336.91 245.87,-338.16 248.94,-344.45" style=""/>
</g>
<!-- PBTStaking.compoundDeposit -->
<g id="node4" class="node" pointer-events="visible" data-name="PBTStaking.compoundDeposit">

<ellipse fill="#ffbdb9" stroke="#ffbdb9" stroke-width="3" cx="108.01" cy="-335" rx="81.69" ry="18" style=""/>
<text text-anchor="middle" x="108.01" y="-330.8" font-family="Times,serif" font-size="14.00" style="">compoundDeposit</text>
</g>
<!-- PBTStaking.compoundDeposit&#45;&gt;PBTStaking._deposit -->
<g id="edge2" class="edge" data-name="PBTStaking.compoundDeposit-&gt;PBTStaking._deposit">

<path fill="none" stroke="#1bc6a6" stroke-width="2" d="M186.97,-328.88C202.04,-327.7 217.55,-326.48 231.73,-325.37" style=""/>
<polygon fill="#1bc6a6" stroke="#1bc6a6" stroke-width="2" points="231.61,-328.89 241.31,-324.61 231.06,-321.91 231.61,-328.89" style=""/>
</g>
<!-- PBTStaking.withdraw -->
<g id="node5" class="node" pointer-events="visible" data-name="PBTStaking.withdraw">

<ellipse fill="#ffbdb9" stroke="#ffbdb9" stroke-width="3" cx="108.01" cy="-281" rx="47.52" ry="18" style=""/>
<text text-anchor="middle" x="108.01" y="-276.8" font-family="Times,serif" font-size="14.00" style="">withdraw</text>
</g>
<!-- PBTStaking._withdraw -->
<g id="node9" class="node" pointer-events="visible" data-name="PBTStaking._withdraw">

<ellipse fill="#edad56" stroke="#edad56" stroke-width="3" cx="288.35" cy="-240" rx="52.18" ry="18" style=""/>
<text text-anchor="middle" x="288.35" y="-235.8" font-family="Times,serif" font-size="14.00" style="">_withdraw</text>
</g>
<!-- PBTStaking.withdraw&#45;&gt;PBTStaking._withdraw -->
<g id="edge3" class="edge" data-name="PBTStaking.withdraw-&gt;PBTStaking._withdraw">

<path fill="none" stroke="#1bc6a6" stroke-width="2" d="M150.37,-271.49C174.16,-266.02 204.39,-259.07 230.4,-253.09" style=""/>
<polygon fill="#1bc6a6" stroke="#1bc6a6" stroke-width="2" points="230.87,-256.58 239.83,-250.93 229.3,-249.75 230.87,-256.58" style=""/>
</g>
<!-- PBTStaking.claimRewards -->
<g id="node6" class="node" pointer-events="visible" data-name="PBTStaking.claimRewards">

<ellipse fill="#ffbdb9" stroke="#ffbdb9" stroke-width="3" cx="108.01" cy="-227" rx="66.05" ry="18" style=""/>
<text text-anchor="middle" x="108.01" y="-222.8" font-family="Times,serif" font-size="14.00" style="">claimRewards</text>
</g>
<!-- PBTStaking.claimRewards&#45;&gt;PBTStaking._withdraw -->
<g id="edge4" class="edge" data-name="PBTStaking.claimRewards-&gt;PBTStaking._withdraw">

<path fill="none" stroke="#1bc6a6" stroke-width="2" d="M173.39,-231.69C189.61,-232.88 207.02,-234.14 223.22,-235.33" style=""/>
<polygon fill="#1bc6a6" stroke="#1bc6a6" stroke-width="2" points="222.67,-238.79 232.9,-236.03 223.18,-231.81 222.67,-238.79" style=""/>
</g>
<!-- PBTStaking.emergencyWithdraw -->
<g id="node7" class="node" pointer-events="visible" data-name="PBTStaking.emergencyWithdraw">

<ellipse fill="#ffbdb9" stroke="#ffbdb9" stroke-width="3" cx="108.01" cy="-173" rx="92.02" ry="18" style=""/>
<text text-anchor="middle" x="108.01" y="-168.8" font-family="Times,serif" font-size="14.00" style="">emergencyWithdraw</text>
</g>
<!-- IERC20.transfer -->
<g id="node11" class="node" pointer-events="visible" data-name="IERC20.transfer">

<ellipse fill="#edad56" stroke="#edad56" stroke-width="3" cx="452.09" cy="-34" rx="40.55" ry="18" style=""/>
<text text-anchor="middle" x="452.09" y="-29.8" font-family="Times,serif" font-size="14.00" style="">transfer</text>
</g>
<!-- PBTStaking.emergencyWithdraw&#45;&gt;IERC20.transfer -->
<g id="edge5" class="edge" data-name="PBTStaking.emergencyWithdraw-&gt;IERC20.transfer">

<path fill="none" stroke="white" stroke-width="2" d="M149.12,-155.51C201.26,-132.93 295.27,-92.79 376.69,-61 386.23,-57.28 396.52,-53.43 406.32,-49.85" style=""/>
<polygon fill="white" stroke="white" stroke-width="2" points="407.31,-53.22 415.52,-46.52 404.93,-46.63 407.31,-53.22" style=""/>
</g>
<!-- PBTStaking._updateRewards -->
<g id="node10" class="node" pointer-events="visible" data-name="PBTStaking._updateRewards">

<ellipse fill="#edad56" stroke="#edad56" stroke-width="3" cx="452.09" cy="-267" rx="75.29" ry="18" style=""/>
<text text-anchor="middle" x="452.09" y="-262.8" font-family="Times,serif" font-size="14.00" style="">_updateRewards</text>
</g>
<!-- PBTStaking._deposit&#45;&gt;PBTStaking._updateRewards -->
<g id="edge6" class="edge" data-name="PBTStaking._deposit-&gt;PBTStaking._updateRewards">

<path fill="none" stroke="#1bc6a6" stroke-width="2" d="M324.05,-309.42C344.11,-302.72 369.88,-294.11 392.95,-286.41" style=""/>
<polygon fill="#1bc6a6" stroke="#1bc6a6" stroke-width="2" points="393.84,-289.8 402.21,-283.32 391.62,-283.16 393.84,-289.8" style=""/>
</g>
<!-- IERC20.transferFrom -->
<g id="node12" class="node" pointer-events="visible" data-name="IERC20.transferFrom">

<ellipse fill="#edad56" stroke="#edad56" stroke-width="3" cx="452.09" cy="-88" rx="61.41" ry="18" style=""/>
<text text-anchor="middle" x="452.09" y="-83.8" font-family="Times,serif" font-size="14.00" style="">transferFrom</text>
</g>
<!-- PBTStaking._deposit&#45;&gt;IERC20.transferFrom -->
<g id="edge7" class="edge" data-name="PBTStaking._deposit-&gt;IERC20.transferFrom">

<path fill="none" stroke="white" stroke-width="2" d="M309.6,-304.07C320.21,-294.22 332.64,-281.02 340.69,-267 369.27,-217.24 343.89,-190.09 376.69,-143 385.13,-130.89 397.09,-120.39 408.96,-111.9" style=""/>
<polygon fill="white" stroke="white" stroke-width="2" points="410.86,-114.84 417.22,-106.37 406.96,-109.03 410.86,-114.84" style=""/>
</g>
<!-- PBTStaking._withdraw&#45;&gt;PBTStaking._updateRewards -->
<g id="edge8" class="edge" data-name="PBTStaking._withdraw-&gt;PBTStaking._updateRewards">

<path fill="none" stroke="#1bc6a6" stroke-width="2" d="M337,-247.95C349.08,-249.97 362.35,-252.19 375.44,-254.37" style=""/>
<polygon fill="#1bc6a6" stroke="#1bc6a6" stroke-width="2" points="374.46,-257.76 384.9,-255.95 375.61,-250.85 374.46,-257.76" style=""/>
</g>
<!-- PBTStaking._withdraw&#45;&gt;IERC20.transfer -->
<g id="edge9" class="edge" data-name="PBTStaking._withdraw-&gt;IERC20.transfer">

<path fill="none" stroke="white" stroke-width="2" d="M296.61,-220.75C312.52,-179.41 351.11,-84.01 376.69,-61 383.78,-54.62 392.5,-49.71 401.44,-45.95" style=""/>
<polygon fill="white" stroke="white" stroke-width="2" points="402.6,-49.26 410.8,-42.54 400.2,-42.68 402.6,-49.26" style=""/>
</g>
<!-- key -->
<g id="node13" class="node" pointer-events="visible" data-name="key">

<polygon fill="#edad56" stroke="none" stroke-width="3" points="173.01,-652 43.01,-652 43.01,-564 173.01,-564 173.01,-652" style=""/>
<text text-anchor="start" x="92.65" y="-633.4" font-family="Times,serif" font-size="14.00" style="">Internal Call</text>
<text text-anchor="start" x="88.76" y="-613.4" font-family="Times,serif" font-size="14.00" style="">External Call</text>
<text text-anchor="start" x="66.21" y="-593.4" font-family="Times,serif" font-size="14.00" style="">Defined Contract</text>
<text text-anchor="start" x="52.61" y="-573.4" font-family="Times,serif" font-size="14.00" style="">Undefined Contract</text>
</g>
<!-- key2 -->
<g id="node14" class="node" pointer-events="visible" data-name="key2">

<polygon fill="#edad56" stroke="none" stroke-width="3" points="315.35,-652 261.35,-652 261.35,-564 315.35,-564 315.35,-652" style=""/>
<text text-anchor="start" x="278.35" y="-633.4" font-family="Times,serif" font-size="14.00" style="">   </text>
<text text-anchor="start" x="278.35" y="-613.4" font-family="Times,serif" font-size="14.00" style="">   </text>
<polygon fill="#445773" stroke="none" points="276.35,-588 276.35,-608 301.35,-608 301.35,-588 276.35,-588" style=""/>
<text text-anchor="start" x="278.35" y="-593.4" font-family="Times,serif" font-size="14.00" style="">   </text>
<polygon fill="none" stroke="#e8726d" points="278.35,-570 278.35,-586 299.35,-586 299.35,-570 278.35,-570" style=""/>
</g>
<!-- key&#45;&gt;key2 -->
<g id="edge10" class="edge" data-name="key-&gt;key2">

<path fill="none" stroke="#1bc6a6" stroke-width="2" d="M166.01,-638C210.05,-638 224.16,-638 262.59,-638" style=""/>
<polygon fill="#1bc6a6" stroke="#1bc6a6" stroke-width="2" points="262.33,-641.5 272.33,-638 262.33,-634.5 262.33,-641.5" style=""/>
</g>
<!-- key&#45;&gt;key2 -->
<g id="edge11" class="edge" data-name="key-&gt;key2">

<path fill="none" stroke="white" stroke-width="2" d="M166.01,-618C210.05,-618 224.16,-618 262.59,-618" style=""/>
<polygon fill="white" stroke="white" stroke-width="2" points="262.33,-621.5 272.33,-618 262.33,-614.5 262.33,-621.5" style=""/>
</g>
</g>
</svg>